<svg xmlns="http://www.w3.org/2000/svg" viewBox="0 0 909.36 909.36"><defs><style>.cls-1{fill:#fff;}</style></defs><g id="Layer_2" data-name="Layer 2"><g id="Layer_7" data-name="Layer 7"><path class="cls-1" d="M454.68,0C203.57,0,0,203.57,0,454.68S203.57,909.36,454.68,909.36,909.36,705.79,909.36,454.68,705.79,0,454.68,0ZM759.91,333.28c.51,9.56,8.66,239.94-182.29,364.59-133.21,87-308.14,86.45-445-1.53,37.95,1.93,98.08-.79,161.62-30.64A321.88,321.88,0,0,0,344,636.6c-11.88,0-50.95-1.3-87.32-29.88A141.31,141.31,0,0,1,209.19,537q18.17-.72,37.53-2.3,12.14-1,23.75-2.29c-11.05-2.48-52.81-13.23-82.73-53.62-26.34-35.56-27.66-72.72-27.57-85A239,239,0,0,0,202.3,406c7.24,1.41,14.16,2.39,20.68,3.07-8.81-6-46.45-32.84-59-85-12.94-53.9,10.2-96.1,15.32-104.94a464,464,0,0,0,129.44,99.57,464.28,464.28,0,0,0,167.75,49.79c-15.74-70.29,20-140.95,82-167.74,53.78-23.26,118.62-9.71,161.61,34.47L812,203.83a152.18,152.18,0,0,1-62.81,77.36l79.66-20.68a176.61,176.61,0,0,1-68.94,72.77Z"/></g></g></svg>