<svg xmlns="http://www.w3.org/2000/svg" viewBox="0 0 909.36 909.36"><defs><style>.cls-1{fill:#fff;}.cls-2{fill:#1da1f2;}</style></defs><g id="Layer_2" data-name="Layer 2"><g id="Layer_7" data-name="Layer 7"><circle class="cls-1" cx="454.68" cy="454.68" r="454.68"/><path class="cls-2" d="M132.59,696.34c37.95,1.93,98.08-.79,161.62-30.64A321.56,321.56,0,0,0,344,636.59c-11.88,0-51-1.29-87.32-29.87A141.35,141.35,0,0,1,209.19,537q18.17-.72,37.53-2.3,12.14-1,23.75-2.3c-11.05-2.48-52.81-13.22-82.73-53.61-26.34-35.57-27.66-72.73-27.57-85A238.51,238.51,0,0,0,202.3,406c7.24,1.4,14.16,2.39,20.68,3.07-8.81-6-46.46-32.84-59-85-12.94-53.89,10.2-96.09,15.32-104.93a464.14,464.14,0,0,0,129.44,99.57,464.48,464.48,0,0,0,167.75,49.79c-15.74-70.29,20-140.95,82-167.75,53.78-23.25,118.62-9.7,161.61,34.47L812,203.83a152.18,152.18,0,0,1-62.81,77.36l79.66-20.68a176.61,176.61,0,0,1-68.94,72.77c.51,9.56,8.66,239.94-182.3,364.59C444.41,784.83,269.48,784.32,132.59,696.34Z"/></g></g></svg>