<svg xmlns="http://www.w3.org/2000/svg" viewBox="0 0 1080 1080"><defs><style>.cls-1,.cls-2{fill:#525252;}.cls-1{opacity:0.41;}.cls-2{font-size:600.02px;}.cls-2,.cls-5{font-family:BeckmanFree, Beckman;}.cls-3{fill:none;}.cls-4{fill:#001bb5;}.cls-5{font-size:596px;}.cls-5,.cls-6{fill:#fff200;}.cls-7{fill:#231f20;}</style></defs><g id="Layer_2" data-name="Layer 2"><g id="Layer_6" data-name="Layer 6"><path class="cls-1" d="M1080,0V444.12L751.21,712.29l-30.3-274.78L557.19,628.26,360,299.54,830.5,0Z"/><text class="cls-2" transform="translate(343.04 712.21)">M</text><line class="cls-3" x1="1080" y1="444.12" x2="1080"/><line class="cls-3" x1="1080" x2="830.5"/><rect class="cls-4" width="1080" height="1080"/><path class="cls-1" d="M1080,0V444.12L751.21,712.29l-30.3-274.78L557.19,628.26,360,299.54,830.5,0Z"/><text class="cls-2" transform="translate(343.04 712.21)">M</text><line class="cls-3" x1="1080" y1="444.12" x2="1080"/><line class="cls-3" x1="1080" x2="830.5"/><text class="cls-5" transform="translate(330.2 710.28)">M</text><path class="cls-6" d="M360,662c61.6-23.58,100.23-46.71,125-64.71,8-5.81,20-15,36.88-15.5,20.45-.62,31.39,11.92,71.42,40.28,57.13,40.47,72.85,41.85,81.29,37.84,7-3.3,10.22-10.85,10.66-11.89,6-14.38-6.11-30.06-5.66-30.25s14,16.69,19.42,42.31a108.78,108.78,0,0,1-.92,48l-70.5,7.74-21-1.72a237.33,237.33,0,0,0-59.8-28.5C504.69,672.3,468.34,673.62,434,674.87a503.17,503.17,0,0,0-74,8.22Z"/><path class="cls-7" d="M360,667.74q31.94-9.47,66.26-18.46,35.64-9.3,69.48-16.91a178.7,178.7,0,0,1,61.45-4.11A184.12,184.12,0,0,0,540.07,617c-14-8.14-22.36-12.86-33.63-13.43a50.31,50.31,0,0,0-21.71,4.11c-20.29,8-65.64,28.94-124.73,58.26Z"/><path class="cls-7" d="M525.32,581.8a233.24,233.24,0,0,1,43.19-5.44c22.86-.71,65-2,93.33,22.22a72,72,0,0,1,9.79,10.21c4,3.37,12.46,11.61,14.56,24.07.68,4,1.9,11.27-2.49,18.25a26.07,26.07,0,0,1-12.07,9.83c-18,6.93-47.6-15.37-91.09-48.12a221.47,221.47,0,0,0-27.94-18.29A227,227,0,0,0,525.32,581.8Z"/><path class="cls-7" d="M360,683.09c13.85.63,66.49,3,122.49,6.49a187,187,0,0,1,35.06,5.12,177.2,177.2,0,0,1,39.64,15l32.92,3.36-48.75-24.57a160.12,160.12,0,0,0-21.84-6.74,195.82,195.82,0,0,0-26-3.86c-17.74-1.36-57.67-1.34-110.2,1.42Z"/><path class="cls-7" d="M536.25,707.77a141.13,141.13,0,0,0-24.15-8.64,146.92,146.92,0,0,0-27.52-4.39C465,693.35,420.41,689,360,683.09v2.22q58.94,6,120.3,14.51,16.26,2.26,32.28,4.66Z"/><path d="M674.79,699.3a17.4,17.4,0,0,0-14.61,12.91l32.22-3.54A17.4,17.4,0,0,0,674.79,699.3Z"/><rect class="cls-6" x="360" y="573.85" width="67.49" height="136.4"/></g></g></svg>